<?xml version="1.0" encoding="utf-8"?>
<svg version="1.1" id="Layer_1" xmlns="http://www.w3.org/2000/svg" xmlns:xlink="http://www.w3.org/1999/xlink" x="0px" y="0px"
	 viewBox="0 0 6912 2100" style="enable-background:new 0 0 6912 3456;" xml:space="preserve">
<style type="text/css">
  @keyframes pulse {
    0% { opacity: 0;}
    50% { opacity: 0;}
    51% { opacity: 1; }
    100% { opacity: 1; }
  }
	.st0{fill:#002B36;}
	.st1{fill:#DC332D;}
	.st2{
    fill:#FCF6E4;
    animation-name: pulse;
    animation-duration: .7s;
    animation-iteration-count: infinite;
    animation-timing-function: linear;
    animation-direction: alternate;
  }
	.st3{fill:#0A7756;}
	.st4{fill:#FFFFFF;}
	.st5{fill:none;}
	.st6{fill:#010101;}
	.st7{fill:#0B3932;}
	.st8{fill:#2A1B0F;}
	.st9{fill:#4A3216;}
	.st10{fill:#6C4B1E;}
	.st11{fill:#21B49B;}
	.st12{fill:#6DC8BB;}
	.st13{fill:#42BDA9;}
	.st14{fill:#8C6427;}
	.st15{fill:url(#path1948_1_);}
	.st16{fill:url(#path1950_1_);}
	.st17{opacity:0.4438;fill:url(#path1894_1_);enable-background:new    ;}
	.st18{fill:#75AA42;}
	.st19{fill:#BC1F45;}
	.st20{fill:#E44F26;}
	.st21{fill:#F1662A;}
	.st22{fill:#EBEBEB;}
	.st23{fill:#FFFFFF;stroke:#010101;stroke-width:6;stroke-linecap:round;stroke-linejoin:round;stroke-miterlimit:10;}
	.st24{fill:#D0B698;stroke:#010101;stroke-width:6;stroke-linecap:round;stroke-linejoin:round;stroke-miterlimit:10;}
	.st25{fill:none;stroke:#010101;stroke-width:6;stroke-linecap:round;stroke-linejoin:round;stroke-miterlimit:10;}
	.st26{fill:#AC967B;stroke:#010101;stroke-width:6;stroke-linecap:round;stroke-linejoin:round;stroke-miterlimit:10;}
	.st27{fill:#A4C439;}
	.st28{fill:#5F5F5F;}
	.st29{fill:#574740;}
	.st30{fill:#493B35;}
	.st31{fill:#AAD9BE;}
	.st32{fill:#F6E2D6;}
	.st33{fill:#FAF1EA;}
	.st34{fill:#64C29A;}
	.st35{fill:#C6E5D1;}
	.st36{fill:#ABDABF;}
	.st37{fill:#FCF8F5;}
	.st38{fill:#90CFAD;}
	.st39{fill:#F4E0D3;}
</style>
<rect id="XMLID_23_" x="0" y="0" class="st0" width="6912" height="2124.8"/>
<g id="XMLID_2_">
	<g id="XMLID_4_">
		<path id="XMLID_21_" class="st1" d="M945.4,834.2V979c-30.5-19.6-62.3-34.4-95.3-44.4c-33-10-66.1-15-99.2-15
			c-37,0-64.9,5.4-83.7,16.1c-18.9,10.7-28.3,26.7-28.3,47.8c0,30.2,40.3,54.7,121,73.5l6.2,1.7l47.5,11.3
			c60.3,14.3,104.5,37.4,132.6,69.3c28.1,31.9,42.1,74.9,42.1,129.2c0,65.2-21.4,114.2-64.2,146.8c-42.8,32.6-107.2,48.9-193.1,48.9
			c-38.1,0-77.1-3.3-117.1-9.9c-40-6.6-80.5-16.5-121.6-29.7v-144.8c36.6,20.7,73.8,36.6,111.7,47.5c37.9,11,74.5,16.4,110,16.4
			c38.8,0,68.2-5.7,88.2-17c20-11.3,30-27.7,30-49.2c0-21.1-7.1-37.3-21.2-48.6c-14.1-11.3-47.8-23.4-100.9-36.2l-45.8-10.2
			c-63.3-14.3-109.5-36.8-138.6-67.3c-29-30.5-43.5-71.4-43.5-122.7c0-61.1,22.1-108.6,66.2-142.5c44.1-33.9,106.1-50.9,186.1-50.9
			c35.8,0,71.5,2.9,107.2,8.8C877.3,813.8,911.9,822.5,945.4,834.2z"/>
		<path id="XMLID_19_" class="st1" d="M1118.6,567.8h165.7v462l199.1-215.5h200.8l-239.8,236.4l253.4,397h-183.2l-173.6-296.3
			l-56.6,54.3v242h-165.7V567.8z"/>
		<path id="XMLID_16_" class="st1" d="M1838.8,814.4h328v506.2h205.9v127.2h-578v-127.2h206.4V941.7h-162.3V814.4z M2001.1,506.2
			h165.7v193.4h-165.7V506.2z"/>
		<path id="XMLID_14_" class="st1" d="M2529,1183.7V695.1h-168V567.8h333.7v615.9c0,49.8,7.7,85,23.2,105.8s41.7,31.1,78.6,31.1
			h132.3v127.2h-178.7c-78.8,0-135.4-20.4-169.7-61.1C2546.2,1346,2529,1278.3,2529,1183.7z"/>
		<path id="XMLID_12_" class="st1" d="M3509.6,834.2V979c-30.5-19.6-62.3-34.4-95.3-44.4c-33-10-66.1-15-99.3-15
			c-37,0-64.8,5.4-83.7,16.1c-18.9,10.7-28.3,26.7-28.3,47.8c0,30.2,40.3,54.7,121,73.5l6.2,1.7l47.5,11.3
			c60.3,14.3,104.5,37.4,132.6,69.3c28.1,31.9,42.1,74.9,42.1,129.2c0,65.2-21.4,114.2-64.2,146.8c-42.8,32.6-107.2,48.9-193.1,48.9
			c-38.1,0-77.1-3.3-117-9.9c-40-6.6-80.5-16.5-121.6-29.7v-144.8c36.6,20.7,73.8,36.6,111.7,47.5c37.9,11,74.5,16.4,110,16.4
			c38.8,0,68.2-5.7,88.2-17c20-11.3,30-27.7,30-49.2c0-21.1-7.1-37.3-21.2-48.6c-14.1-11.3-47.8-23.4-100.9-36.2l-45.8-10.2
			c-63.3-14.3-109.5-36.8-138.6-67.3c-29-30.5-43.5-71.4-43.5-122.7c0-61.1,22.1-108.6,66.2-142.5c44.1-33.9,106.1-50.9,186-50.9
			c35.8,0,71.5,2.9,107.2,8.8C3441.4,813.8,3476,822.5,3509.6,834.2z"/>
		<path id="XMLID_10_" class="st1" d="M3974.6,634.6v179.8h216.6v127.3h-216.6v299.7c0,28.3,6.9,48.6,20.6,60.8
			c13.8,12.3,36.7,18.4,68.7,18.4h127.3v127.2h-139.1c-95,0-159.3-15.2-192.9-45.5c-33.6-30.3-50.3-86.6-50.3-168.8V941.7h-161.7
			V814.4h161.7V634.6H3974.6z"/>
		<path id="XMLID_7_" class="st1" d="M4881.4,1086.4v361.4h-164.6v-70.7c-20,27.9-45.6,49.4-76.9,64.5
			c-31.3,15.1-65.8,22.6-103.5,22.6c-72,0-128.1-19-168.3-57.1c-40.1-38.1-60.2-91.2-60.2-159.5c0-73.9,23.9-128.5,71.8-163.7
			c47.9-35.2,122-52.9,222.3-52.9h114.8v-27.7c0-26.8-9.7-47-29.1-60.8c-19.4-13.8-48-20.6-85.7-20.6c-39.6,0-78,5-115.1,15
			c-37.1,10-75.9,25.9-116.2,47.8V843.3c36.6-15.1,73.7-26.2,111.4-33.4c37.7-7.2,77.7-10.7,119.9-10.7
			c102.9,0,175.2,20.9,216.9,62.8C4860.6,903.8,4881.4,978.6,4881.4,1086.4z M4650.7,1150.3c-61.8,0-105,7.9-129.5,23.8
			c-24.5,15.8-36.8,43-36.8,81.4c0,28.7,8.5,51.5,25.5,68.4c17,17,40,25.5,69,25.5c43.7,0,77.7-16.5,101.8-49.5
			s36.2-79.1,36.2-138.3v-11.3H4650.7z"/>
		<path id="XMLID_5_" class="st1" d="M5050.5,567.8h165.7v462l199.1-215.5H5616l-239.8,236.4l253.4,397h-183.2l-173.6-296.3
			l-56.5,54.3v242h-165.7V567.8z"/>
	</g>
	<rect id="cursor" x="5760.5" y="1486.7" class="st2" width="669.3" height="201.7"/>
</g>
</svg>
